# xmcd
#
# Track frame offsets:
#	150
#	16334
#	33543
#	49800
#	63189
#	76644
#	91763
#	105712
#	120256
#	137586
#	152928
#	171262
#
# Disc length: 2491 seconds
#
# Revision: 1
# Processed by: cddbd v1.5.1PL0 Copyright (c) Steve Scherf et al.
# Submitted via: EasyCDDAExtractor 8.1.0.1
#
DISCID=8a09b90c
DTITLE=Toby Keith - Honkytonk University
DYEAR=2005
DGENRE=Country
TTITLE0=Honkytonk U
TTITLE1=As Good As I Once Was
TTITLE2=She Ain't Hooked On Me No More
TTITLE3=Big Blue Note
TTITLE4=Just The Guy To Do It
TTITLE5=She Left Me
TTITLE6=Knock Yourself Out
TTITLE7=You Ain't Leavin' (Thank God Are Ya)
TTITLE8=I Got It Bad
TTITLE9=Your Smile
TTITLE10=Where You Gonna Go
TTITLE11=You Caught Me At A Bad Time
EXTD=
EXTT0=
EXTT1=
EXTT2=
EXTT3=
EXTT4=
EXTT5=
EXTT6=
EXTT7=
EXTT8=
EXTT9=
EXTT10=
EXTT11=
PLAYORDER=
